<?xml version="1.0" standalone="no"?>
<!DOCTYPE svg PUBLIC "-//W3C//DTD SVG 20010904//EN"
 "http://www.w3.org/TR/2001/REC-SVG-20010904/DTD/svg10.dtd">
<svg version="1.0" xmlns="http://www.w3.org/2000/svg"
 width="1024.000000pt" height="1024.000000pt" viewBox="0 0 1024.000000 1024.000000"
 preserveAspectRatio="xMidYMid meet">

<g transform="translate(0.000000,1024.000000) scale(0.100000,-0.100000)"
fill="#000000" stroke="none">
<path d="M0 5120 l0 -5120 5120 0 5120 0 0 5120 0 5120 -5120 0 -5120 0 0
-5120z m5223 2869 c251 -22 418 -69 642 -179 164 -81 291 -170 422 -294 95
-90 119 -127 41 -63 -68 55 -205 141 -303 190 -571 283 -1245 222 -1745 -157
-86 -65 -243 -224 -307 -311 -218 -293 -317 -579 -330 -951 -4 -103 -1 -198 7
-260 25 -201 98 -425 186 -567 44 -71 45 -68 -73 -117 -109 -45 -127 -41 -185
45 -199 293 -306 704 -279 1069 32 417 191 780 470 1069 306 317 695 494 1156
527 153 11 168 11 298 -1z m1636 -806 c72 -23 105 -63 98 -120 -16 -141 -141
-278 -488 -535 -130 -97 -248 -191 -262 -210 -57 -74 -63 -104 -162 -781 -37
-258 -72 -461 -80 -478 -19 -35 -94 -92 -153 -115 -39 -15 -45 -16 -58 -2 -13
13 -88 393 -181 913 -7 41 -12 50 -29 49 -25 0 -553 -314 -594 -352 -25 -23
-36 -53 -79 -217 -65 -250 -62 -244 -137 -303 -47 -36 -69 -40 -83 -14 -5 9
-26 100 -46 202 -37 186 -47 220 -66 220 -18 0 -499 -292 -499 -304 0 -17 136
-144 235 -219 106 -80 363 -211 505 -256 276 -90 572 -103 863 -41 219 48 462
152 621 268 120 87 127 90 51 18 -110 -104 -237 -190 -400 -271 -243 -120
-402 -166 -645 -186 -430 -36 -958 136 -1298 424 -99 83 -262 254 -262 273 0
8 7 14 16 14 50 0 318 155 628 363 85 57 88 60 70 77 -11 9 -107 73 -214 140
-107 68 -204 131 -214 141 -26 24 -13 39 67 79 81 40 115 39 387 -15 124 -25
236 -45 250 -45 25 0 346 232 440 318 l45 42 -22 17 c-21 16 -397 256 -748
476 -71 45 -131 89 -133 97 -5 27 180 150 225 150 11 0 92 -21 179 -46 88 -25
352 -95 587 -155 407 -105 431 -110 478 -100 73 16 108 36 408 238 300 202
344 227 429 247 81 20 209 20 271 -1z m1051 -3553 c0 -214 4 -390 8 -390 5 0
86 90 181 200 l172 200 135 0 c127 0 135 -1 132 -19 -2 -10 -79 -107 -173
-215 -93 -109 -171 -201 -173 -206 -2 -5 81 -128 184 -272 103 -145 189 -271
192 -280 4 -17 -7 -18 -137 -18 -124 0 -143 2 -158 18 -10 10 -94 125 -188
256 l-170 237 -3 -242 c-1 -158 -6 -247 -13 -256 -8 -9 -43 -13 -125 -13 -102
0 -114 2 -124 19 -7 14 -9 239 -8 688 l3 668 120 5 c66 4 126 7 133 8 9 2 12
-82 12 -388z m-5450 355 c36 -7 88 -22 115 -32 l50 -19 3 -128 c1 -71 -1 -133
-6 -138 -5 -5 -32 6 -61 27 -79 53 -147 70 -276 70 -96 0 -116 -3 -153 -23
-82 -44 -108 -139 -56 -202 34 -39 79 -62 228 -115 67 -23 147 -54 178 -69 79
-37 151 -106 185 -174 25 -51 28 -67 28 -162 0 -92 -3 -112 -26 -160 -50 -107
-126 -169 -262 -215 -162 -54 -451 -38 -597 33 l-35 17 -2 115 c-1 63 2 121 7
129 7 12 22 9 87 -22 112 -52 191 -71 308 -71 84 0 108 3 153 23 90 41 121
111 84 194 -28 63 -85 98 -245 148 -295 93 -385 175 -404 364 -20 214 137 385
390 426 65 10 222 2 307 -16z m668 -362 c1 -211 6 -383 10 -383 4 0 85 90 181
200 l172 201 131 -3 c76 -2 133 -7 135 -13 1 -5 -76 -102 -172 -214 -96 -113
-175 -209 -175 -215 0 -6 86 -130 190 -276 104 -146 188 -269 187 -275 -5 -14
-266 -19 -282 -5 -7 6 -94 121 -192 257 l-178 245 -5 -253 -5 -254 -125 0
-125 0 -3 675 c-1 371 0 681 3 688 3 9 35 12 127 10 l123 -3 3 -382z m3132
369 c43 -21 80 -75 80 -116 0 -70 -71 -136 -148 -136 -92 0 -152 54 -152 137
0 99 123 164 220 115z m-972 -14 c9 -9 12 -148 12 -565 l0 -553 293 0 c215 0
296 -3 305 -12 15 -15 16 -171 2 -199 -10 -18 -26 -19 -428 -19 -312 0 -421 3
-430 12 -17 17 -17 1319 0 1336 17 17 229 17 246 0z m1966 -357 c75 -37 128
-92 165 -170 l26 -56 0 -380 0 -380 -105 -3 c-58 -2 -115 0 -127 3 l-22 5 -3
333 c-3 320 -4 334 -25 373 -26 48 -54 69 -118 85 -61 15 -138 -1 -194 -41
-78 -57 -75 -44 -81 -420 l-5 -335 -114 -3 c-75 -2 -118 1 -127 9 -12 9 -14
94 -14 494 0 400 2 485 14 494 9 8 52 11 127 9 l114 -3 3 -47 3 -47 61 40 c93
60 165 80 271 75 73 -3 98 -9 151 -35z m-3137 11 c6 -4 66 -160 133 -347 67
-187 125 -346 130 -354 5 -9 16 12 33 60 168 490 219 634 230 641 7 4 63 8
125 8 92 0 114 -3 118 -15 4 -9 -30 -111 -74 -228 -387 -1017 -368 -975 -456
-1063 -83 -83 -147 -108 -277 -109 -128 0 -129 1 -129 125 l0 98 59 -5 c97 -9
175 27 211 97 11 22 20 53 20 70 0 16 -85 244 -190 506 -104 262 -190 484
-190 493 0 10 3 21 7 24 9 9 235 9 250 -1z m2198 -497 l0 -500 -125 0 -125 0
-3 490 c-1 270 0 496 3 503 3 9 35 12 127 10 l123 -3 0 -500z"/>
</g>
</svg>
