<?xml version="1.0" standalone="no"?>
<!DOCTYPE svg PUBLIC "-//W3C//DTD SVG 20010904//EN"
 "http://www.w3.org/TR/2001/REC-SVG-20010904/DTD/svg10.dtd">
<svg version="1.0" xmlns="http://www.w3.org/2000/svg"
 width="402.000000pt" height="396.000000pt" viewBox="0 0 402.000000 396.000000"
 preserveAspectRatio="xMidYMid meet">

<g transform="translate(0.000000,396.000000) scale(0.100000,-0.100000)"
fill="#000000" stroke="none">
<path d="M1750 3929 c-282 -25 -587 -123 -823 -265 -288 -174 -549 -462 -702
-779 -265 -545 -261 -1173 12 -1720 55 -109 137 -244 156 -256 9 -6 227 62
256 80 11 7 7 21 -23 69 -91 150 -170 351 -205 521 -81 390 -26 822 149 1172
93 186 181 308 335 468 366 378 821 556 1331 521 362 -26 749 -178 1028 -406
31 -25 56 -42 56 -38 0 17 -139 160 -223 227 -379 308 -849 450 -1347 406z"/>
<path d="M3571 3030 c-91 -24 -96 -27 -466 -273 -165 -109 -321 -210 -347
-223 -85 -43 -118 -38 -553 86 -498 142 -862 240 -891 240 -31 0 -192 -98
-227 -137 -36 -41 -60 -23 655 -484 175 -112 317 -207 315 -211 -5 -16 -531
-408 -547 -408 -9 0 -126 24 -261 54 -338 75 -300 72 -394 23 -44 -23 -81 -49
-83 -59 -2 -11 66 -63 238 -179 132 -89 239 -166 238 -171 -7 -21 -666 -448
-718 -466 -30 -10 -55 -21 -55 -24 0 -4 33 -45 74 -93 258 -300 680 -544 1082
-625 595 -119 1234 55 1635 445 103 100 101 100 -56 -15 -396 -290 -925 -397
-1429 -288 -203 43 -449 148 -631 270 -110 73 -351 301 -335 316 6 6 118 69
250 142 132 73 252 139 266 148 15 8 33 13 41 10 9 -4 31 -78 62 -214 27 -115
53 -217 58 -226 15 -29 40 -21 100 35 l58 52 59 229 c33 126 68 241 79 255 15
21 569 352 637 380 39 16 52 -3 70 -106 77 -429 175 -917 188 -930 12 -12 19
-13 38 -2 35 18 161 113 181 135 25 29 43 118 83 419 50 370 132 860 151 901
20 41 33 52 289 234 110 78 237 171 281 206 177 137 294 305 294 421 0 49 -4
59 -33 88 -20 20 -54 39 -87 49 -74 22 -216 20 -309 -4z"/>
</g>
</svg>
