<?xml version="1.0" standalone="no"?>
<!DOCTYPE svg PUBLIC "-//W3C//DTD SVG 20010904//EN"
 "http://www.w3.org/TR/2001/REC-SVG-20010904/DTD/svg10.dtd">
<svg version="1.0" xmlns="http://www.w3.org/2000/svg"
 width="983.000000pt" height="244.000000pt" viewBox="0 0 983.000000 244.000000"
 preserveAspectRatio="xMidYMid meet">

<g transform="translate(0.000000,244.000000) scale(0.100000,-0.100000)"
fill="#000000" stroke="none">
<path d="M1100 2390 c-410 -46 -743 -264 -934 -612 -88 -160 -130 -331 -130
-528 0 -139 12 -214 56 -350 40 -125 157 -336 182 -327 6 2 43 14 81 27 39 12
71 24 73 25 2 1 -13 30 -33 64 -174 297 -187 650 -36 966 140 293 412 517 729
602 86 23 117 27 267 27 186 1 255 -10 415 -66 109 -39 176 -73 281 -143 l84
-56 -45 47 c-139 144 -364 262 -590 309 -90 19 -297 27 -400 15z"/>
<path d="M3827 1913 c-4 -3 -7 -320 -7 -703 0 -584 2 -699 14 -709 9 -8 54
-11 132 -9 l119 3 5 265 5 265 46 -60 c26 -33 110 -150 189 -260 78 -110 147
-203 154 -207 19 -13 296 -10 296 3 0 6 -69 104 -153 218 -84 113 -177 239
-206 279 l-53 72 35 43 c19 23 105 123 190 222 85 99 153 183 151 187 -3 5
-65 8 -139 8 l-134 0 -188 -216 -188 -215 -3 398 c-2 360 -4 399 -19 411 -18
13 -234 18 -246 5z"/>
<path d="M7254 1906 c-93 -41 -108 -156 -29 -224 86 -76 219 -32 240 78 5 26
0 46 -17 79 -39 72 -118 100 -194 67z"/>
<path d="M3126 1900 c-200 -24 -347 -132 -392 -288 -22 -73 -15 -200 13 -263
53 -119 151 -187 371 -258 231 -74 278 -115 270 -233 -4 -50 -9 -63 -38 -93
-48 -49 -114 -69 -230 -69 -106 0 -180 17 -307 68 -46 18 -85 31 -88 28 -3 -3
-5 -58 -5 -122 l0 -118 48 -20 c95 -40 198 -57 352 -57 123 0 156 4 220 23
223 70 344 230 327 436 -16 187 -140 301 -417 386 -132 40 -214 83 -240 125
-44 72 -13 172 67 211 90 44 282 24 431 -46 35 -17 68 -30 73 -30 5 0 9 58 9
130 l0 129 -64 20 c-126 39 -283 55 -400 41z"/>
<path d="M8861 1897 c-8 -11 -10 -195 -9 -708 l3 -694 80 -5 c44 -3 103 -3
130 0 l50 5 5 265 5 265 67 -90 c37 -49 122 -169 190 -265 l123 -175 154 -3
c123 -2 152 0 148 11 -5 13 -327 462 -379 529 l-29 37 192 222 c105 122 187
224 181 228 -5 3 -70 5 -144 3 l-135 -3 -184 -212 -184 -212 -5 405 -5 405
-121 3 c-94 2 -124 -1 -133 -11z"/>
<path d="M6097 1874 c-4 -4 -7 -312 -7 -684 0 -512 3 -679 12 -688 17 -17 899
-17 916 0 8 8 12 47 12 108 0 61 -4 100 -12 108 -9 9 -96 12 -330 12 l-318 0
-2 573 -3 572 -131 3 c-71 1 -133 -1 -137 -4z"/>
<path d="M2260 1837 c-30 -13 -125 -68 -210 -122 -260 -165 -284 -178 -336
-177 -25 1 -217 47 -427 103 -210 56 -397 103 -417 106 -29 4 -47 -3 -100 -39
-36 -24 -65 -49 -65 -57 0 -8 141 -100 313 -205 171 -105 312 -194 312 -198 0
-5 -178 -137 -308 -227 l-33 -23 -186 37 -185 38 -55 -27 c-30 -14 -53 -32
-51 -38 2 -6 69 -52 148 -102 79 -50 145 -96 147 -102 5 -14 -403 -272 -453
-287 -19 -6 -34 -13 -34 -17 0 -16 172 -171 243 -218 153 -104 344 -182 517
-213 117 -21 365 -16 480 9 207 45 399 137 535 257 35 31 31 29 -30 -12 -209
-138 -443 -201 -706 -190 -237 10 -430 69 -620 192 -64 41 -209 170 -209 185
0 4 79 49 176 99 119 62 180 89 187 82 5 -5 25 -68 43 -138 20 -78 38 -129 46
-130 7 -2 28 10 46 25 29 24 38 45 73 167 23 77 45 147 50 156 8 16 408 239
429 239 17 0 24 -28 85 -335 31 -159 61 -294 65 -299 10 -10 94 41 129 78 28
29 33 52 66 286 37 264 82 499 100 526 8 12 97 78 197 146 250 168 347 269
348 361 0 67 -39 87 -169 87 -67 0 -98 -6 -141 -23z"/>
<path d="M8135 1527 c-70 -19 -129 -51 -175 -97 l-40 -40 0 39 c0 22 -4 51
-10 66 l-10 26 -117 -3 -118 -3 0 -510 0 -510 119 -3 c66 -1 123 1 128 6 5 5
9 158 8 341 0 273 2 336 14 360 40 77 150 128 256 118 74 -6 114 -28 148 -79
l27 -41 5 -344 c4 -291 7 -345 20 -353 23 -14 223 -13 238 2 9 9 12 102 12
358 0 361 -4 408 -48 499 -27 59 -101 126 -168 151 -73 28 -215 36 -289 17z"/>
<path d="M4847 1523 c-3 -5 6 -35 20 -68 221 -535 393 -973 393 -1002 0 -42
-31 -104 -66 -132 -36 -29 -96 -43 -162 -39 l-56 3 -8 -40 c-5 -22 -7 -67 -6
-99 3 -59 3 -60 38 -69 19 -5 76 -7 125 -5 74 4 100 9 148 33 73 36 151 119
194 206 50 102 465 1197 458 1209 -9 15 -227 13 -247 -2 -14 -11 -232 -632
-254 -721 -3 -15 -9 -29 -13 -31 -4 -3 -58 138 -121 312 -62 174 -125 346
-139 382 l-26 65 -137 3 c-75 1 -139 -1 -141 -5z"/>
<path d="M7195 1508 c-3 -7 -4 -238 -3 -513 l3 -500 116 -3 c90 -2 119 1 128
11 8 11 10 147 9 513 l-3 499 -123 3 c-92 2 -124 -1 -127 -10z"/>
</g>
</svg>
